<svg xmlns="http://www.w3.org/2000/svg" xmlns:xlink="http://www.w3.org/1999/xlink" width="100" zoomAndPan="magnify" viewBox="0 0 75 33.749998" height="45" preserveAspectRatio="xMidYMid meet" version="1.0"><defs><g/><clipPath id="26f54bbdba"><path d="M 4 2 L 32.109375 2 L 32.109375 29.808594 L 4 29.808594 Z M 4 2 " clip-rule="nonzero"/></clipPath></defs><path fill="#ff3131" d="M 9.355469 2.277344 C 9.609375 2.335938 9.859375 2.421875 10.097656 2.53125 C 10.339844 2.640625 10.566406 2.769531 10.777344 2.921875 C 10.992188 3.078125 11.191406 3.25 11.371094 3.441406 C 11.550781 3.632812 11.707031 3.84375 11.847656 4.066406 C 11.984375 4.289062 12.101562 4.523438 12.195312 4.769531 C 12.285156 5.015625 12.355469 5.269531 12.398438 5.53125 C 12.441406 5.789062 12.457031 6.050781 12.449219 6.3125 C 12.4375 6.578125 12.40625 6.835938 12.34375 7.09375 C 12.285156 7.347656 12.199219 7.597656 12.089844 7.835938 C 11.984375 8.078125 11.851562 8.304688 11.699219 8.515625 C 11.542969 8.730469 11.371094 8.929688 11.179688 9.109375 C 10.988281 9.289062 10.78125 9.445312 10.554688 9.585938 C 10.332031 9.722656 10.097656 9.839844 9.851562 9.933594 C 9.605469 10.023438 9.351562 10.09375 9.09375 10.136719 C 8.832031 10.179688 8.570312 10.195312 8.308594 10.1875 C 8.042969 10.175781 7.785156 10.144531 7.527344 10.082031 C 7.273438 10.023438 7.023438 9.9375 6.785156 9.828125 C 6.546875 9.722656 6.320312 9.589844 6.105469 9.4375 C 5.890625 9.28125 5.695312 9.109375 5.515625 8.917969 C 5.335938 8.726562 5.175781 8.519531 5.035156 8.292969 C 4.898438 8.070312 4.78125 7.835938 4.691406 7.589844 C 4.597656 7.34375 4.53125 7.089844 4.488281 6.832031 C 4.445312 6.570312 4.425781 6.308594 4.4375 6.046875 C 4.445312 5.78125 4.480469 5.523438 4.539062 5.265625 C 4.597656 5.011719 4.683594 4.761719 4.792969 4.523438 C 4.902344 4.285156 5.03125 4.058594 5.183594 3.84375 C 5.339844 3.628906 5.511719 3.433594 5.703125 3.253906 C 5.894531 3.074219 6.105469 2.914062 6.328125 2.773438 C 6.550781 2.636719 6.785156 2.519531 7.03125 2.429688 C 7.277344 2.335938 7.53125 2.269531 7.792969 2.226562 C 8.050781 2.183594 8.3125 2.164062 8.574219 2.175781 C 8.839844 2.183594 9.097656 2.21875 9.355469 2.277344 Z M 9.355469 2.277344 " fill-opacity="1" fill-rule="nonzero"/><g clip-path="url(#26f54bbdba)"><path fill="#ff3131" d="M 8.5 30.539062 C 8.097656 30.542969 7.707031 30.492188 7.324219 30.382812 C 6.941406 30.269531 6.582031 30.105469 6.25 29.890625 C 5.914062 29.671875 5.621094 29.410156 5.363281 29.105469 C 5.109375 28.796875 4.902344 28.460938 4.75 28.09375 C 4.59375 27.726562 4.496094 27.34375 4.453125 26.949219 C 4.414062 26.550781 4.429688 26.15625 4.507812 25.765625 C 4.582031 25.375 4.714844 25.003906 4.902344 24.652344 C 5.089844 24.300781 5.324219 23.984375 5.609375 23.703125 L 25.960938 3.347656 C 26.148438 3.160156 26.351562 2.992188 26.570312 2.84375 C 26.789062 2.695312 27.019531 2.570312 27.261719 2.46875 C 27.507812 2.367188 27.757812 2.292969 28.015625 2.238281 C 28.273438 2.1875 28.535156 2.160156 28.800781 2.160156 C 29.0625 2.160156 29.324219 2.183594 29.585938 2.234375 C 29.84375 2.285156 30.09375 2.363281 30.339844 2.464844 C 30.582031 2.5625 30.8125 2.6875 31.035156 2.832031 C 31.253906 2.980469 31.457031 3.148438 31.644531 3.332031 C 31.828125 3.519531 31.996094 3.722656 32.144531 3.941406 C 32.289062 4.164062 32.414062 4.394531 32.515625 4.636719 C 32.613281 4.882812 32.691406 5.132812 32.742188 5.390625 C 32.792969 5.652344 32.816406 5.914062 32.816406 6.175781 C 32.816406 6.441406 32.789062 6.703125 32.738281 6.960938 C 32.6875 7.21875 32.609375 7.46875 32.507812 7.714844 C 32.40625 7.957031 32.28125 8.1875 32.132812 8.40625 C 31.984375 8.625 31.820312 8.828125 31.632812 9.015625 L 18.117188 22.527344 L 28.796875 22.527344 C 29.058594 22.527344 29.320312 22.554688 29.578125 22.605469 C 29.835938 22.65625 30.085938 22.730469 30.332031 22.832031 C 30.574219 22.933594 30.804688 23.054688 31.023438 23.203125 C 31.242188 23.347656 31.445312 23.515625 31.628906 23.699219 C 31.816406 23.886719 31.984375 24.089844 32.128906 24.308594 C 32.277344 24.527344 32.398438 24.757812 32.5 25 C 32.601562 25.246094 32.675781 25.496094 32.726562 25.753906 C 32.777344 26.011719 32.804688 26.273438 32.804688 26.535156 C 32.804688 26.796875 32.777344 27.058594 32.726562 27.316406 C 32.675781 27.574219 32.601562 27.824219 32.5 28.070312 C 32.398438 28.3125 32.277344 28.542969 32.128906 28.761719 C 31.984375 28.980469 31.816406 29.183594 31.628906 29.371094 C 31.445312 29.554688 31.242188 29.722656 31.023438 29.867188 C 30.804688 30.015625 30.574219 30.136719 30.332031 30.238281 C 30.085938 30.339844 29.835938 30.414062 29.578125 30.464844 C 29.320312 30.515625 29.058594 30.542969 28.796875 30.542969 Z M 8.5 30.539062 " fill-opacity="1" fill-rule="evenodd"/></g><g fill="#ffffff" fill-opacity="1"><g transform="translate(33.458451, 29.949568)"><g><path d="M 1.015625 -11.1875 C 1.015625 -11.570312 1.023438 -11.863281 1.046875 -12.0625 C 1.078125 -12.257812 1.15625 -12.484375 1.28125 -12.734375 C 1.507812 -13.171875 2.171875 -13.390625 3.265625 -13.390625 C 4.078125 -13.390625 4.648438 -13.25 4.984375 -12.96875 C 5.273438 -12.726562 5.429688 -12.363281 5.453125 -11.875 C 5.460938 -11.695312 5.46875 -11.445312 5.46875 -11.125 L 5.46875 -2.21875 C 5.46875 -1.820312 5.457031 -1.523438 5.4375 -1.328125 C 5.414062 -1.140625 5.335938 -0.914062 5.203125 -0.65625 C 4.972656 -0.21875 4.316406 0 3.234375 0 C 2.160156 0 1.507812 -0.226562 1.28125 -0.6875 C 1.15625 -0.9375 1.078125 -1.15625 1.046875 -1.34375 C 1.023438 -1.53125 1.015625 -1.828125 1.015625 -2.234375 Z M 5.203125 -15.90625 C 5.078125 -15.65625 4.851562 -15.476562 4.53125 -15.375 C 4.207031 -15.28125 3.773438 -15.234375 3.234375 -15.234375 C 2.703125 -15.234375 2.273438 -15.28125 1.953125 -15.375 C 1.640625 -15.476562 1.414062 -15.65625 1.28125 -15.90625 C 1.15625 -16.164062 1.078125 -16.394531 1.046875 -16.59375 C 1.023438 -16.789062 1.015625 -17.082031 1.015625 -17.46875 C 1.015625 -17.863281 1.023438 -18.15625 1.046875 -18.34375 C 1.078125 -18.539062 1.15625 -18.757812 1.28125 -19 C 1.507812 -19.457031 2.171875 -19.6875 3.265625 -19.6875 C 4.328125 -19.6875 4.972656 -19.457031 5.203125 -19 C 5.335938 -18.75 5.414062 -18.523438 5.4375 -18.328125 C 5.457031 -18.128906 5.46875 -17.832031 5.46875 -17.4375 C 5.46875 -17.050781 5.457031 -16.757812 5.4375 -16.5625 C 5.414062 -16.375 5.335938 -16.15625 5.203125 -15.90625 Z M 5.203125 -15.90625 "/></g></g></g><g fill="#ffffff" fill-opacity="1"><g transform="translate(39.949567, 29.949568)"><g><path d="M 7.71875 -4.484375 L 12.078125 -4.484375 C 12.753906 -4.484375 13.238281 -4.394531 13.53125 -4.21875 C 13.832031 -4.050781 14.03125 -3.804688 14.125 -3.484375 C 14.226562 -3.160156 14.28125 -2.734375 14.28125 -2.203125 C 14.28125 -1.679688 14.226562 -1.257812 14.125 -0.9375 C 14.03125 -0.613281 13.851562 -0.390625 13.59375 -0.265625 C 13.34375 -0.140625 13.117188 -0.0625 12.921875 -0.03125 C 12.722656 -0.0078125 12.429688 0 12.046875 0 L 2.859375 0 C 2.265625 0 1.742188 -0.21875 1.296875 -0.65625 C 0.859375 -1.101562 0.640625 -1.628906 0.640625 -2.234375 C 0.640625 -2.847656 0.859375 -3.367188 1.296875 -3.796875 C 1.742188 -4.234375 2.425781 -4.859375 3.34375 -5.671875 C 4.257812 -6.492188 5.085938 -7.226562 5.828125 -7.875 C 6.578125 -8.53125 6.988281 -8.894531 7.0625 -8.96875 L 3.46875 -8.96875 C 2.5 -8.96875 1.882812 -9.128906 1.625 -9.453125 C 1.34375 -9.828125 1.203125 -10.316406 1.203125 -10.921875 C 1.203125 -11.535156 1.242188 -11.988281 1.328125 -12.28125 C 1.410156 -12.582031 1.507812 -12.804688 1.625 -12.953125 C 1.75 -13.097656 1.921875 -13.210938 2.140625 -13.296875 C 2.429688 -13.378906 2.875 -13.421875 3.46875 -13.421875 L 11.734375 -13.421875 C 12.328125 -13.421875 12.84375 -13.207031 13.28125 -12.78125 C 13.726562 -12.363281 13.953125 -11.832031 13.953125 -11.1875 C 13.953125 -10.550781 13.695312 -9.988281 13.1875 -9.5 C 12.675781 -9.007812 10.851562 -7.335938 7.71875 -4.484375 Z M 7.71875 -4.484375 "/></g></g></g><g fill="#ffffff" fill-opacity="1"><g transform="translate(54.866398, 29.949568)"><g><path d="M 0.640625 -6.703125 C 0.640625 -8.734375 1.351562 -10.410156 2.78125 -11.734375 C 4.207031 -13.066406 5.835938 -13.734375 7.671875 -13.734375 C 9.503906 -13.734375 11.125 -13.070312 12.53125 -11.75 C 13.9375 -10.4375 14.640625 -8.757812 14.640625 -6.71875 C 14.640625 -5.3125 14.273438 -4.0625 13.546875 -2.96875 C 12.816406 -1.875 11.929688 -1.066406 10.890625 -0.546875 C 9.847656 -0.0234375 8.765625 0.234375 7.640625 0.234375 C 6.515625 0.234375 5.425781 -0.0390625 4.375 -0.59375 C 3.320312 -1.144531 2.4375 -1.957031 1.71875 -3.03125 C 1 -4.113281 0.640625 -5.335938 0.640625 -6.703125 Z M 5.953125 -4.875 C 6.503906 -4.457031 7.054688 -4.25 7.609375 -4.25 C 8.171875 -4.25 8.734375 -4.460938 9.296875 -4.890625 C 9.859375 -5.316406 10.140625 -5.941406 10.140625 -6.765625 C 10.140625 -7.597656 9.875 -8.21875 9.34375 -8.625 C 8.820312 -9.039062 8.253906 -9.25 7.640625 -9.25 C 7.023438 -9.25 6.453125 -9.035156 5.921875 -8.609375 C 5.398438 -8.179688 5.140625 -7.554688 5.140625 -6.734375 C 5.140625 -5.910156 5.410156 -5.289062 5.953125 -4.875 Z M 5.953125 -4.875 "/></g></g></g></svg>